# xmcd
#
# Track frame offsets:
#	150
#	17953
#	34494
#	53670
#	70266
#	85486
#
# Disc length: 1419 seconds
#
# Revision: 1
# Processed by: cddbd v1.5.1PL0 Copyright (c) Steve Scherf et al.
# Submitted via: audiograbber 1.83.01
#
DISCID=4f058906
DTITLE=Hush - A Lifetime (Album Sampler)
DYEAR=2004
DGENRE=Country
TTITLE0=If You Go Breaking My Heart
TTITLE1=If I Was
TTITLE2=A Lifetime
TTITLE3=Lovestruck
TTITLE4=Sometimes
TTITLE5=Drown
EXTD=
EXTT0=
EXTT1=
EXTT2=
EXTT3=
EXTT4=
EXTT5=
PLAYORDER=
